<mxfile host="Electron" modified="2024-08-16T06:32:06.929Z" agent="Mozilla/5.0 (Windows NT 10.0; Win64; x64) AppleWebKit/537.36 (KHTML, like Gecko) draw.io/24.2.5 Chrome/120.0.6099.109 Electron/28.1.0 Safari/537.36" etag="oTIPWQLCfNDIZq2gPrNQ" version="24.2.5" type="device">
  <diagram name="Page-1" id="2ca16b54-16f6-2749-3443-fa8db7711227">
    <mxGraphModel dx="2702" dy="147" grid="0" gridSize="10" guides="1" tooltips="1" connect="1" arrows="1" fold="1" page="0" pageScale="1" pageWidth="1100" pageHeight="850" background="none" math="0" shadow="0">
      <root>
        <mxCell id="0" />
        <mxCell id="1" parent="0" />
        <mxCell id="uulidqC-5OU9ns8CFvGA-270" style="edgeStyle=orthogonalEdgeStyle;rounded=0;orthogonalLoop=1;jettySize=auto;html=1;entryX=0.5;entryY=0;entryDx=0;entryDy=0;" edge="1" parent="1" source="uulidqC-5OU9ns8CFvGA-65" target="uulidqC-5OU9ns8CFvGA-269">
          <mxGeometry relative="1" as="geometry" />
        </mxCell>
        <mxCell id="uulidqC-5OU9ns8CFvGA-65" value="&lt;font style=&quot;font-size: 20px;&quot;&gt;&lt;b&gt;User&lt;/b&gt;&lt;/font&gt;" style="rounded=0;whiteSpace=wrap;html=1;" vertex="1" parent="1">
          <mxGeometry x="197.5" y="1579" width="91" height="38" as="geometry" />
        </mxCell>
        <mxCell id="uulidqC-5OU9ns8CFvGA-74" style="edgeStyle=orthogonalEdgeStyle;rounded=0;orthogonalLoop=1;jettySize=auto;html=1;entryX=0.5;entryY=0;entryDx=0;entryDy=0;" edge="1" parent="1" source="uulidqC-5OU9ns8CFvGA-73" target="uulidqC-5OU9ns8CFvGA-65">
          <mxGeometry relative="1" as="geometry" />
        </mxCell>
        <mxCell id="uulidqC-5OU9ns8CFvGA-73" value="&lt;font style=&quot;font-size: 15px;&quot;&gt;Email&lt;/font&gt;" style="ellipse;whiteSpace=wrap;html=1;" vertex="1" parent="1">
          <mxGeometry x="203.5" y="1401" width="79" height="40" as="geometry" />
        </mxCell>
        <mxCell id="uulidqC-5OU9ns8CFvGA-79" style="edgeStyle=orthogonalEdgeStyle;rounded=0;orthogonalLoop=1;jettySize=auto;html=1;entryX=0.75;entryY=0;entryDx=0;entryDy=0;" edge="1" parent="1" source="uulidqC-5OU9ns8CFvGA-75" target="uulidqC-5OU9ns8CFvGA-65">
          <mxGeometry relative="1" as="geometry" />
        </mxCell>
        <mxCell id="uulidqC-5OU9ns8CFvGA-75" value="&lt;font style=&quot;font-size: 15px;&quot;&gt;&amp;nbsp;first_name&lt;/font&gt;" style="ellipse;whiteSpace=wrap;html=1;" vertex="1" parent="1">
          <mxGeometry x="290.5" y="1419" width="99" height="48" as="geometry" />
        </mxCell>
        <mxCell id="uulidqC-5OU9ns8CFvGA-77" value="&lt;font style=&quot;font-size: 15px;&quot;&gt;&amp;nbsp;last_name&lt;/font&gt;" style="ellipse;whiteSpace=wrap;html=1;" vertex="1" parent="1">
          <mxGeometry x="328" y="1476" width="99" height="48" as="geometry" />
        </mxCell>
        <mxCell id="uulidqC-5OU9ns8CFvGA-83" style="edgeStyle=orthogonalEdgeStyle;rounded=0;orthogonalLoop=1;jettySize=auto;html=1;entryX=0.25;entryY=0;entryDx=0;entryDy=0;" edge="1" parent="1" source="uulidqC-5OU9ns8CFvGA-82" target="uulidqC-5OU9ns8CFvGA-65">
          <mxGeometry relative="1" as="geometry" />
        </mxCell>
        <mxCell id="uulidqC-5OU9ns8CFvGA-82" value="&lt;span style=&quot;font-size: 15px;&quot;&gt;password&lt;/span&gt;" style="ellipse;whiteSpace=wrap;html=1;" vertex="1" parent="1">
          <mxGeometry x="96" y="1423" width="86" height="44" as="geometry" />
        </mxCell>
        <mxCell id="uulidqC-5OU9ns8CFvGA-85" style="edgeStyle=orthogonalEdgeStyle;rounded=0;orthogonalLoop=1;jettySize=auto;html=1;entryX=0.126;entryY=0;entryDx=0;entryDy=0;entryPerimeter=0;" edge="1" parent="1" source="uulidqC-5OU9ns8CFvGA-84" target="uulidqC-5OU9ns8CFvGA-65">
          <mxGeometry relative="1" as="geometry">
            <mxPoint x="178.7272616299715" y="1529.5454656427555" as="targetPoint" />
          </mxGeometry>
        </mxCell>
        <mxCell id="uulidqC-5OU9ns8CFvGA-84" value="&lt;span style=&quot;font-size: 15px;&quot;&gt;phone number&lt;/span&gt;" style="ellipse;whiteSpace=wrap;html=1;" vertex="1" parent="1">
          <mxGeometry x="37" y="1472" width="86" height="44" as="geometry" />
        </mxCell>
        <mxCell id="uulidqC-5OU9ns8CFvGA-87" style="edgeStyle=orthogonalEdgeStyle;rounded=0;orthogonalLoop=1;jettySize=auto;html=1;entryX=0;entryY=0;entryDx=0;entryDy=0;" edge="1" parent="1" source="uulidqC-5OU9ns8CFvGA-86" target="uulidqC-5OU9ns8CFvGA-65">
          <mxGeometry relative="1" as="geometry" />
        </mxCell>
        <mxCell id="uulidqC-5OU9ns8CFvGA-86" value="&lt;span style=&quot;font-size: 15px;&quot;&gt;Role&lt;/span&gt;" style="ellipse;whiteSpace=wrap;html=1;" vertex="1" parent="1">
          <mxGeometry x="49" y="1530" width="63" height="35" as="geometry" />
        </mxCell>
        <mxCell id="uulidqC-5OU9ns8CFvGA-89" style="edgeStyle=orthogonalEdgeStyle;rounded=0;orthogonalLoop=1;jettySize=auto;html=1;entryX=1;entryY=0;entryDx=0;entryDy=0;" edge="1" parent="1" source="uulidqC-5OU9ns8CFvGA-88" target="uulidqC-5OU9ns8CFvGA-65">
          <mxGeometry relative="1" as="geometry" />
        </mxCell>
        <mxCell id="uulidqC-5OU9ns8CFvGA-88" value="&lt;span style=&quot;font-size: 15px;&quot;&gt;Security Question&lt;/span&gt;" style="ellipse;whiteSpace=wrap;html=1;" vertex="1" parent="1">
          <mxGeometry x="341" y="1535" width="86" height="44" as="geometry" />
        </mxCell>
        <mxCell id="uulidqC-5OU9ns8CFvGA-90" style="edgeStyle=orthogonalEdgeStyle;rounded=0;orthogonalLoop=1;jettySize=auto;html=1;entryX=0.881;entryY=0;entryDx=0;entryDy=0;entryPerimeter=0;" edge="1" parent="1" source="uulidqC-5OU9ns8CFvGA-77" target="uulidqC-5OU9ns8CFvGA-65">
          <mxGeometry relative="1" as="geometry" />
        </mxCell>
        <mxCell id="uulidqC-5OU9ns8CFvGA-91" value="&lt;span style=&quot;font-size: 20px;&quot;&gt;&lt;b&gt;Package&lt;/b&gt;&lt;/span&gt;" style="rounded=0;whiteSpace=wrap;html=1;" vertex="1" parent="1">
          <mxGeometry x="-205.5" y="1863" width="91" height="38" as="geometry" />
        </mxCell>
        <mxCell id="uulidqC-5OU9ns8CFvGA-107" style="edgeStyle=orthogonalEdgeStyle;rounded=0;orthogonalLoop=1;jettySize=auto;html=1;exitX=1;exitY=1;exitDx=0;exitDy=0;entryX=0.5;entryY=0;entryDx=0;entryDy=0;" edge="1" parent="1" source="uulidqC-5OU9ns8CFvGA-93" target="uulidqC-5OU9ns8CFvGA-91">
          <mxGeometry relative="1" as="geometry">
            <Array as="points">
              <mxPoint x="-160" y="1737" />
            </Array>
          </mxGeometry>
        </mxCell>
        <mxCell id="uulidqC-5OU9ns8CFvGA-93" value="Images" style="ellipse;whiteSpace=wrap;html=1;" vertex="1" parent="1">
          <mxGeometry x="-243.63" y="1703" width="79" height="40" as="geometry" />
        </mxCell>
        <mxCell id="uulidqC-5OU9ns8CFvGA-94" style="edgeStyle=orthogonalEdgeStyle;rounded=0;orthogonalLoop=1;jettySize=auto;html=1;entryX=0.75;entryY=0;entryDx=0;entryDy=0;" edge="1" parent="1" source="uulidqC-5OU9ns8CFvGA-95" target="uulidqC-5OU9ns8CFvGA-91">
          <mxGeometry relative="1" as="geometry" />
        </mxCell>
        <mxCell id="uulidqC-5OU9ns8CFvGA-95" value="&lt;span style=&quot;font-size: 15px;&quot;&gt;Cities&lt;/span&gt;" style="ellipse;whiteSpace=wrap;html=1;" vertex="1" parent="1">
          <mxGeometry x="-112.5" y="1703" width="65.5" height="44" as="geometry" />
        </mxCell>
        <mxCell id="uulidqC-5OU9ns8CFvGA-294" style="edgeStyle=orthogonalEdgeStyle;rounded=0;orthogonalLoop=1;jettySize=auto;html=1;entryX=0;entryY=0.5;entryDx=0;entryDy=0;" edge="1" parent="1" source="uulidqC-5OU9ns8CFvGA-96" target="uulidqC-5OU9ns8CFvGA-140">
          <mxGeometry relative="1" as="geometry">
            <Array as="points">
              <mxPoint x="13" y="1777" />
              <mxPoint x="13" y="2108" />
            </Array>
          </mxGeometry>
        </mxCell>
        <mxCell id="uulidqC-5OU9ns8CFvGA-96" value="&lt;span style=&quot;font-size: 15px;&quot;&gt;Package Name&lt;/span&gt;" style="ellipse;whiteSpace=wrap;html=1;" vertex="1" parent="1">
          <mxGeometry x="-53" y="1751" width="83" height="51" as="geometry" />
        </mxCell>
        <mxCell id="uulidqC-5OU9ns8CFvGA-97" style="edgeStyle=orthogonalEdgeStyle;rounded=0;orthogonalLoop=1;jettySize=auto;html=1;entryX=0.25;entryY=0;entryDx=0;entryDy=0;" edge="1" parent="1" source="uulidqC-5OU9ns8CFvGA-98" target="uulidqC-5OU9ns8CFvGA-91">
          <mxGeometry relative="1" as="geometry" />
        </mxCell>
        <mxCell id="uulidqC-5OU9ns8CFvGA-98" value="&lt;span style=&quot;font-size: 15px;&quot;&gt;Package details&lt;/span&gt;" style="ellipse;whiteSpace=wrap;html=1;" vertex="1" parent="1">
          <mxGeometry x="-338" y="1751" width="86" height="44" as="geometry" />
        </mxCell>
        <mxCell id="uulidqC-5OU9ns8CFvGA-99" style="edgeStyle=orthogonalEdgeStyle;rounded=0;orthogonalLoop=1;jettySize=auto;html=1;entryX=0.126;entryY=0;entryDx=0;entryDy=0;entryPerimeter=0;" edge="1" parent="1" source="uulidqC-5OU9ns8CFvGA-100" target="uulidqC-5OU9ns8CFvGA-91">
          <mxGeometry relative="1" as="geometry">
            <mxPoint x="-224.2727383700285" y="1813.5454656427555" as="targetPoint" />
          </mxGeometry>
        </mxCell>
        <mxCell id="uulidqC-5OU9ns8CFvGA-100" value="&lt;span style=&quot;font-size: 15px;&quot;&gt;phone number&lt;/span&gt;" style="ellipse;whiteSpace=wrap;html=1;" vertex="1" parent="1">
          <mxGeometry x="-341" y="1808" width="86" height="44" as="geometry" />
        </mxCell>
        <mxCell id="uulidqC-5OU9ns8CFvGA-103" style="edgeStyle=orthogonalEdgeStyle;rounded=0;orthogonalLoop=1;jettySize=auto;html=1;entryX=1;entryY=0;entryDx=0;entryDy=0;" edge="1" parent="1" source="uulidqC-5OU9ns8CFvGA-104" target="uulidqC-5OU9ns8CFvGA-91">
          <mxGeometry relative="1" as="geometry" />
        </mxCell>
        <mxCell id="uulidqC-5OU9ns8CFvGA-104" value="&lt;span style=&quot;font-size: 15px;&quot;&gt;Starting Price&lt;/span&gt;" style="ellipse;whiteSpace=wrap;html=1;" vertex="1" parent="1">
          <mxGeometry x="-89" y="1808" width="78" height="52" as="geometry" />
        </mxCell>
        <mxCell id="uulidqC-5OU9ns8CFvGA-105" style="edgeStyle=orthogonalEdgeStyle;rounded=0;orthogonalLoop=1;jettySize=auto;html=1;entryX=0.881;entryY=0;entryDx=0;entryDy=0;entryPerimeter=0;" edge="1" parent="1" source="uulidqC-5OU9ns8CFvGA-96" target="uulidqC-5OU9ns8CFvGA-91">
          <mxGeometry relative="1" as="geometry" />
        </mxCell>
        <mxCell id="uulidqC-5OU9ns8CFvGA-126" style="edgeStyle=orthogonalEdgeStyle;rounded=0;orthogonalLoop=1;jettySize=auto;html=1;entryX=1;entryY=0.5;entryDx=0;entryDy=0;" edge="1" parent="1" source="uulidqC-5OU9ns8CFvGA-108" target="uulidqC-5OU9ns8CFvGA-125">
          <mxGeometry relative="1" as="geometry">
            <Array as="points">
              <mxPoint x="729" y="1982" />
              <mxPoint x="729" y="1982" />
            </Array>
          </mxGeometry>
        </mxCell>
        <mxCell id="uulidqC-5OU9ns8CFvGA-285" style="edgeStyle=orthogonalEdgeStyle;rounded=0;orthogonalLoop=1;jettySize=auto;html=1;entryX=0.5;entryY=0;entryDx=0;entryDy=0;" edge="1" parent="1" source="uulidqC-5OU9ns8CFvGA-108" target="uulidqC-5OU9ns8CFvGA-284">
          <mxGeometry relative="1" as="geometry" />
        </mxCell>
        <mxCell id="uulidqC-5OU9ns8CFvGA-108" value="&lt;span style=&quot;font-size: 20px;&quot;&gt;&lt;b&gt;Cities&lt;/b&gt;&lt;/span&gt;" style="rounded=0;whiteSpace=wrap;html=1;" vertex="1" parent="1">
          <mxGeometry x="742.5" y="1950" width="91" height="38" as="geometry" />
        </mxCell>
        <mxCell id="uulidqC-5OU9ns8CFvGA-288" style="edgeStyle=orthogonalEdgeStyle;rounded=0;orthogonalLoop=1;jettySize=auto;html=1;entryX=1;entryY=0.75;entryDx=0;entryDy=0;" edge="1" parent="1" source="uulidqC-5OU9ns8CFvGA-110" target="uulidqC-5OU9ns8CFvGA-108">
          <mxGeometry relative="1" as="geometry" />
        </mxCell>
        <mxCell id="uulidqC-5OU9ns8CFvGA-292" style="edgeStyle=orthogonalEdgeStyle;rounded=0;orthogonalLoop=1;jettySize=auto;html=1;entryX=0;entryY=0.5;entryDx=0;entryDy=0;" edge="1" parent="1" source="uulidqC-5OU9ns8CFvGA-110" target="uulidqC-5OU9ns8CFvGA-243">
          <mxGeometry relative="1" as="geometry" />
        </mxCell>
        <mxCell id="uulidqC-5OU9ns8CFvGA-110" value="&lt;span style=&quot;font-size: 15px;&quot;&gt;city images&lt;/span&gt;" style="ellipse;whiteSpace=wrap;html=1;" vertex="1" parent="1">
          <mxGeometry x="890.5" y="1975" width="95.5" height="40" as="geometry" />
        </mxCell>
        <mxCell id="uulidqC-5OU9ns8CFvGA-111" style="edgeStyle=orthogonalEdgeStyle;rounded=0;orthogonalLoop=1;jettySize=auto;html=1;entryX=0.75;entryY=0;entryDx=0;entryDy=0;" edge="1" parent="1" source="uulidqC-5OU9ns8CFvGA-112" target="uulidqC-5OU9ns8CFvGA-108">
          <mxGeometry relative="1" as="geometry" />
        </mxCell>
        <mxCell id="uulidqC-5OU9ns8CFvGA-112" value="&lt;span style=&quot;font-size: 15px;&quot;&gt;day1 description&lt;/span&gt;" style="ellipse;whiteSpace=wrap;html=1;" vertex="1" parent="1">
          <mxGeometry x="835" y="1736" width="99" height="48" as="geometry" />
        </mxCell>
        <mxCell id="uulidqC-5OU9ns8CFvGA-113" value="&lt;font style=&quot;font-size: 15px;&quot;&gt;day2 description&lt;/font&gt;" style="ellipse;whiteSpace=wrap;html=1;" vertex="1" parent="1">
          <mxGeometry x="846.5" y="1792" width="99" height="48" as="geometry" />
        </mxCell>
        <mxCell id="uulidqC-5OU9ns8CFvGA-114" style="edgeStyle=orthogonalEdgeStyle;rounded=0;orthogonalLoop=1;jettySize=auto;html=1;entryX=0.25;entryY=0;entryDx=0;entryDy=0;" edge="1" parent="1" source="uulidqC-5OU9ns8CFvGA-115" target="uulidqC-5OU9ns8CFvGA-108">
          <mxGeometry relative="1" as="geometry" />
        </mxCell>
        <mxCell id="uulidqC-5OU9ns8CFvGA-115" value="&lt;span style=&quot;font-size: 15px;&quot;&gt;city details&lt;/span&gt;" style="ellipse;whiteSpace=wrap;html=1;" vertex="1" parent="1">
          <mxGeometry x="641" y="1794" width="86" height="44" as="geometry" />
        </mxCell>
        <mxCell id="uulidqC-5OU9ns8CFvGA-116" style="edgeStyle=orthogonalEdgeStyle;rounded=0;orthogonalLoop=1;jettySize=auto;html=1;entryX=0.126;entryY=0;entryDx=0;entryDy=0;entryPerimeter=0;" edge="1" parent="1" source="uulidqC-5OU9ns8CFvGA-117" target="uulidqC-5OU9ns8CFvGA-108">
          <mxGeometry relative="1" as="geometry">
            <mxPoint x="723.7272616299715" y="1900.5454656427555" as="targetPoint" />
          </mxGeometry>
        </mxCell>
        <mxCell id="uulidqC-5OU9ns8CFvGA-117" value="&lt;span style=&quot;font-size: 15px;&quot;&gt;starting date&lt;/span&gt;" style="ellipse;whiteSpace=wrap;html=1;" vertex="1" parent="1">
          <mxGeometry x="587" y="1843" width="81" height="53" as="geometry" />
        </mxCell>
        <mxCell id="uulidqC-5OU9ns8CFvGA-118" style="edgeStyle=orthogonalEdgeStyle;rounded=0;orthogonalLoop=1;jettySize=auto;html=1;entryX=0;entryY=0;entryDx=0;entryDy=0;" edge="1" parent="1" source="uulidqC-5OU9ns8CFvGA-119" target="uulidqC-5OU9ns8CFvGA-108">
          <mxGeometry relative="1" as="geometry" />
        </mxCell>
        <mxCell id="uulidqC-5OU9ns8CFvGA-119" value="&lt;span style=&quot;font-size: 15px;&quot;&gt;ending date&lt;/span&gt;" style="ellipse;whiteSpace=wrap;html=1;" vertex="1" parent="1">
          <mxGeometry x="583" y="1901" width="74" height="44" as="geometry" />
        </mxCell>
        <mxCell id="uulidqC-5OU9ns8CFvGA-120" style="edgeStyle=orthogonalEdgeStyle;rounded=0;orthogonalLoop=1;jettySize=auto;html=1;entryX=1;entryY=0;entryDx=0;entryDy=0;" edge="1" parent="1" source="uulidqC-5OU9ns8CFvGA-121" target="uulidqC-5OU9ns8CFvGA-108">
          <mxGeometry relative="1" as="geometry" />
        </mxCell>
        <mxCell id="uulidqC-5OU9ns8CFvGA-121" value="&lt;span style=&quot;font-size: 15px;&quot;&gt;day3 description&lt;/span&gt;" style="ellipse;whiteSpace=wrap;html=1;" vertex="1" parent="1">
          <mxGeometry x="861.13" y="1848" width="98" height="49" as="geometry" />
        </mxCell>
        <mxCell id="uulidqC-5OU9ns8CFvGA-122" style="edgeStyle=orthogonalEdgeStyle;rounded=0;orthogonalLoop=1;jettySize=auto;html=1;entryX=0.881;entryY=0;entryDx=0;entryDy=0;entryPerimeter=0;" edge="1" parent="1" source="uulidqC-5OU9ns8CFvGA-113" target="uulidqC-5OU9ns8CFvGA-108">
          <mxGeometry relative="1" as="geometry" />
        </mxCell>
        <mxCell id="uulidqC-5OU9ns8CFvGA-124" style="edgeStyle=orthogonalEdgeStyle;rounded=0;orthogonalLoop=1;jettySize=auto;html=1;entryX=1;entryY=0.5;entryDx=0;entryDy=0;" edge="1" parent="1" source="uulidqC-5OU9ns8CFvGA-123" target="uulidqC-5OU9ns8CFvGA-108">
          <mxGeometry relative="1" as="geometry" />
        </mxCell>
        <mxCell id="uulidqC-5OU9ns8CFvGA-123" value="&lt;span style=&quot;font-size: 15px;&quot;&gt;day4 description&lt;/span&gt;" style="ellipse;whiteSpace=wrap;html=1;" vertex="1" parent="1">
          <mxGeometry x="881" y="1911" width="98" height="49" as="geometry" />
        </mxCell>
        <mxCell id="uulidqC-5OU9ns8CFvGA-125" value="&lt;span style=&quot;font-size: 15px;&quot;&gt;Package id&lt;/span&gt;" style="ellipse;whiteSpace=wrap;html=1;" vertex="1" parent="1">
          <mxGeometry x="579" y="1960" width="93.5" height="44" as="geometry" />
        </mxCell>
        <mxCell id="uulidqC-5OU9ns8CFvGA-127" value="&lt;span style=&quot;font-size: 15px;&quot;&gt;city name&lt;/span&gt;" style="ellipse;whiteSpace=wrap;html=1;" vertex="1" parent="1">
          <mxGeometry x="759" y="1629" width="79" height="47" as="geometry" />
        </mxCell>
        <mxCell id="uulidqC-5OU9ns8CFvGA-132" style="edgeStyle=orthogonalEdgeStyle;rounded=0;orthogonalLoop=1;jettySize=auto;html=1;entryX=0.609;entryY=0.033;entryDx=0;entryDy=0;entryPerimeter=0;" edge="1" parent="1" source="uulidqC-5OU9ns8CFvGA-127" target="uulidqC-5OU9ns8CFvGA-108">
          <mxGeometry relative="1" as="geometry" />
        </mxCell>
        <mxCell id="uulidqC-5OU9ns8CFvGA-302" style="edgeStyle=orthogonalEdgeStyle;rounded=0;orthogonalLoop=1;jettySize=auto;html=1;entryX=0.5;entryY=0;entryDx=0;entryDy=0;" edge="1" parent="1" source="uulidqC-5OU9ns8CFvGA-133" target="uulidqC-5OU9ns8CFvGA-161">
          <mxGeometry relative="1" as="geometry" />
        </mxCell>
        <mxCell id="uulidqC-5OU9ns8CFvGA-133" value="&lt;span style=&quot;font-size: 20px;&quot;&gt;&lt;b&gt;Bookings&lt;/b&gt;&lt;/span&gt;" style="rounded=0;whiteSpace=wrap;html=1;" vertex="1" parent="1">
          <mxGeometry x="164" y="2197" width="110.5" height="42" as="geometry" />
        </mxCell>
        <mxCell id="uulidqC-5OU9ns8CFvGA-296" style="edgeStyle=orthogonalEdgeStyle;rounded=0;orthogonalLoop=1;jettySize=auto;html=1;exitX=1;exitY=0;exitDx=0;exitDy=0;entryX=0;entryY=0.5;entryDx=0;entryDy=0;" edge="1" parent="1" source="uulidqC-5OU9ns8CFvGA-137" target="uulidqC-5OU9ns8CFvGA-127">
          <mxGeometry relative="1" as="geometry" />
        </mxCell>
        <mxCell id="uulidqC-5OU9ns8CFvGA-137" value="&lt;span style=&quot;font-size: 15px;&quot;&gt;city name&lt;/span&gt;" style="ellipse;whiteSpace=wrap;html=1;" vertex="1" parent="1">
          <mxGeometry x="260" y="1954" width="65.5" height="44" as="geometry" />
        </mxCell>
        <mxCell id="uulidqC-5OU9ns8CFvGA-138" value="&lt;span style=&quot;font-size: 15px;&quot;&gt;payment status&lt;/span&gt;" style="ellipse;whiteSpace=wrap;html=1;" vertex="1" parent="1">
          <mxGeometry x="300" y="2086" width="83" height="51" as="geometry" />
        </mxCell>
        <mxCell id="uulidqC-5OU9ns8CFvGA-139" style="edgeStyle=orthogonalEdgeStyle;rounded=0;orthogonalLoop=1;jettySize=auto;html=1;entryX=0.25;entryY=0;entryDx=0;entryDy=0;" edge="1" parent="1" source="uulidqC-5OU9ns8CFvGA-140" target="uulidqC-5OU9ns8CFvGA-133">
          <mxGeometry relative="1" as="geometry" />
        </mxCell>
        <mxCell id="uulidqC-5OU9ns8CFvGA-140" value="&lt;span style=&quot;font-size: 15px;&quot;&gt;package name&lt;/span&gt;" style="ellipse;whiteSpace=wrap;html=1;" vertex="1" parent="1">
          <mxGeometry x="33" y="2086" width="86" height="44" as="geometry" />
        </mxCell>
        <mxCell id="uulidqC-5OU9ns8CFvGA-141" style="edgeStyle=orthogonalEdgeStyle;rounded=0;orthogonalLoop=1;jettySize=auto;html=1;entryX=0.126;entryY=0;entryDx=0;entryDy=0;entryPerimeter=0;" edge="1" parent="1" source="uulidqC-5OU9ns8CFvGA-142" target="uulidqC-5OU9ns8CFvGA-133">
          <mxGeometry relative="1" as="geometry">
            <mxPoint x="146.7272616299715" y="2148.5454656427555" as="targetPoint" />
          </mxGeometry>
        </mxCell>
        <mxCell id="uulidqC-5OU9ns8CFvGA-142" value="&lt;span style=&quot;font-size: 15px;&quot;&gt;total cost&lt;/span&gt;" style="ellipse;whiteSpace=wrap;html=1;" vertex="1" parent="1">
          <mxGeometry x="30" y="2143" width="86" height="44" as="geometry" />
        </mxCell>
        <mxCell id="uulidqC-5OU9ns8CFvGA-143" style="edgeStyle=orthogonalEdgeStyle;rounded=0;orthogonalLoop=1;jettySize=auto;html=1;entryX=1;entryY=0;entryDx=0;entryDy=0;" edge="1" parent="1" source="uulidqC-5OU9ns8CFvGA-144" target="uulidqC-5OU9ns8CFvGA-133">
          <mxGeometry relative="1" as="geometry" />
        </mxCell>
        <mxCell id="uulidqC-5OU9ns8CFvGA-144" value="&lt;span style=&quot;font-size: 15px;&quot;&gt;no. of passengers&lt;/span&gt;" style="ellipse;whiteSpace=wrap;html=1;" vertex="1" parent="1">
          <mxGeometry x="302.5" y="2148" width="95.5" height="58" as="geometry" />
        </mxCell>
        <mxCell id="uulidqC-5OU9ns8CFvGA-145" style="edgeStyle=orthogonalEdgeStyle;rounded=0;orthogonalLoop=1;jettySize=auto;html=1;entryX=0.881;entryY=0;entryDx=0;entryDy=0;entryPerimeter=0;" edge="1" parent="1" source="uulidqC-5OU9ns8CFvGA-138" target="uulidqC-5OU9ns8CFvGA-133">
          <mxGeometry relative="1" as="geometry" />
        </mxCell>
        <mxCell id="uulidqC-5OU9ns8CFvGA-146" value="&lt;span style=&quot;font-size: 15px;&quot;&gt;booking no&lt;/span&gt;" style="ellipse;whiteSpace=wrap;html=1;" vertex="1" parent="1">
          <mxGeometry x="34" y="2028" width="86" height="44" as="geometry" />
        </mxCell>
        <mxCell id="uulidqC-5OU9ns8CFvGA-147" style="edgeStyle=orthogonalEdgeStyle;rounded=0;orthogonalLoop=1;jettySize=auto;html=1;entryX=0.397;entryY=-0.036;entryDx=0;entryDy=0;entryPerimeter=0;" edge="1" parent="1" source="uulidqC-5OU9ns8CFvGA-146" target="uulidqC-5OU9ns8CFvGA-133">
          <mxGeometry relative="1" as="geometry" />
        </mxCell>
        <mxCell id="uulidqC-5OU9ns8CFvGA-148" value="&lt;span style=&quot;font-size: 15px;&quot;&gt;user id&lt;/span&gt;" style="ellipse;whiteSpace=wrap;html=1;" vertex="1" parent="1">
          <mxGeometry x="109" y="1981" width="86" height="44" as="geometry" />
        </mxCell>
        <mxCell id="uulidqC-5OU9ns8CFvGA-150" value="&lt;span style=&quot;font-size: 20px;&quot;&gt;&lt;b&gt;Travellers&lt;/b&gt;&lt;/span&gt;" style="rounded=0;whiteSpace=wrap;html=1;" vertex="1" parent="1">
          <mxGeometry x="98.25" y="2522" width="91" height="38" as="geometry" />
        </mxCell>
        <mxCell id="uulidqC-5OU9ns8CFvGA-152" value="&lt;span style=&quot;font-size: 15px;&quot;&gt;age&lt;/span&gt;" style="ellipse;whiteSpace=wrap;html=1;" vertex="1" parent="1">
          <mxGeometry x="123.75" y="2361" width="65.5" height="44" as="geometry" />
        </mxCell>
        <mxCell id="uulidqC-5OU9ns8CFvGA-153" value="&lt;span style=&quot;font-size: 15px;&quot;&gt;email&lt;/span&gt;" style="ellipse;whiteSpace=wrap;html=1;" vertex="1" parent="1">
          <mxGeometry x="197.75" y="2399" width="70" height="41" as="geometry" />
        </mxCell>
        <mxCell id="uulidqC-5OU9ns8CFvGA-159" value="&lt;span style=&quot;font-size: 15px;&quot;&gt;gender&lt;/span&gt;" style="ellipse;whiteSpace=wrap;html=1;" vertex="1" parent="1">
          <mxGeometry x="227.75" y="2461" width="71.5" height="46" as="geometry" />
        </mxCell>
        <mxCell id="uulidqC-5OU9ns8CFvGA-161" value="&lt;span style=&quot;font-size: 15px;&quot;&gt;booking id&lt;/span&gt;" style="ellipse;whiteSpace=wrap;html=1;" vertex="1" parent="1">
          <mxGeometry x="-56" y="2462" width="86" height="44" as="geometry" />
        </mxCell>
        <mxCell id="uulidqC-5OU9ns8CFvGA-163" value="&lt;span style=&quot;font-size: 15px;&quot;&gt;aadhar no.&lt;/span&gt;" style="ellipse;whiteSpace=wrap;html=1;" vertex="1" parent="1">
          <mxGeometry x="17.75" y="2396" width="86" height="44" as="geometry" />
        </mxCell>
        <mxCell id="uulidqC-5OU9ns8CFvGA-165" style="edgeStyle=orthogonalEdgeStyle;rounded=0;orthogonalLoop=1;jettySize=auto;html=1;entryX=0.135;entryY=0.003;entryDx=0;entryDy=0;entryPerimeter=0;" edge="1" parent="1" source="uulidqC-5OU9ns8CFvGA-161" target="uulidqC-5OU9ns8CFvGA-150">
          <mxGeometry relative="1" as="geometry" />
        </mxCell>
        <mxCell id="uulidqC-5OU9ns8CFvGA-166" style="edgeStyle=orthogonalEdgeStyle;rounded=0;orthogonalLoop=1;jettySize=auto;html=1;exitX=1;exitY=1;exitDx=0;exitDy=0;entryX=0.298;entryY=-0.039;entryDx=0;entryDy=0;entryPerimeter=0;" edge="1" parent="1" source="uulidqC-5OU9ns8CFvGA-163" target="uulidqC-5OU9ns8CFvGA-150">
          <mxGeometry relative="1" as="geometry">
            <Array as="points">
              <mxPoint x="125.75" y="2434" />
              <mxPoint x="125.75" y="2481" />
            </Array>
          </mxGeometry>
        </mxCell>
        <mxCell id="uulidqC-5OU9ns8CFvGA-167" style="edgeStyle=orthogonalEdgeStyle;rounded=0;orthogonalLoop=1;jettySize=auto;html=1;entryX=0.64;entryY=-0.008;entryDx=0;entryDy=0;entryPerimeter=0;" edge="1" parent="1" source="uulidqC-5OU9ns8CFvGA-152" target="uulidqC-5OU9ns8CFvGA-150">
          <mxGeometry relative="1" as="geometry" />
        </mxCell>
        <mxCell id="uulidqC-5OU9ns8CFvGA-168" style="edgeStyle=orthogonalEdgeStyle;rounded=0;orthogonalLoop=1;jettySize=auto;html=1;exitX=0;exitY=1;exitDx=0;exitDy=0;entryX=0.825;entryY=0.013;entryDx=0;entryDy=0;entryPerimeter=0;" edge="1" parent="1" source="uulidqC-5OU9ns8CFvGA-153" target="uulidqC-5OU9ns8CFvGA-150">
          <mxGeometry relative="1" as="geometry" />
        </mxCell>
        <mxCell id="uulidqC-5OU9ns8CFvGA-169" style="edgeStyle=orthogonalEdgeStyle;rounded=0;orthogonalLoop=1;jettySize=auto;html=1;entryX=0.926;entryY=0.045;entryDx=0;entryDy=0;entryPerimeter=0;" edge="1" parent="1" source="uulidqC-5OU9ns8CFvGA-159" target="uulidqC-5OU9ns8CFvGA-150">
          <mxGeometry relative="1" as="geometry" />
        </mxCell>
        <mxCell id="uulidqC-5OU9ns8CFvGA-303" style="edgeStyle=orthogonalEdgeStyle;rounded=0;orthogonalLoop=1;jettySize=auto;html=1;entryX=1;entryY=0.5;entryDx=0;entryDy=0;" edge="1" parent="1" source="uulidqC-5OU9ns8CFvGA-170" target="uulidqC-5OU9ns8CFvGA-88">
          <mxGeometry relative="1" as="geometry">
            <Array as="points">
              <mxPoint x="613" y="1557" />
              <mxPoint x="613" y="1557" />
            </Array>
          </mxGeometry>
        </mxCell>
        <mxCell id="uulidqC-5OU9ns8CFvGA-170" value="&lt;span style=&quot;font-size: 20px;&quot;&gt;&lt;b&gt;Security Question&lt;/b&gt;&lt;/span&gt;" style="rounded=0;whiteSpace=wrap;html=1;" vertex="1" parent="1">
          <mxGeometry x="667.75" y="1515" width="96.5" height="55" as="geometry" />
        </mxCell>
        <mxCell id="uulidqC-5OU9ns8CFvGA-171" style="edgeStyle=orthogonalEdgeStyle;rounded=0;orthogonalLoop=1;jettySize=auto;html=1;entryX=0.5;entryY=0;entryDx=0;entryDy=0;" edge="1" parent="1" source="uulidqC-5OU9ns8CFvGA-172" target="uulidqC-5OU9ns8CFvGA-170">
          <mxGeometry relative="1" as="geometry" />
        </mxCell>
        <mxCell id="uulidqC-5OU9ns8CFvGA-172" value="&lt;span style=&quot;font-size: 15px;&quot;&gt;Questions&lt;/span&gt;" style="ellipse;whiteSpace=wrap;html=1;" vertex="1" parent="1">
          <mxGeometry x="676.5" y="1411" width="79" height="40" as="geometry" />
        </mxCell>
        <mxCell id="uulidqC-5OU9ns8CFvGA-185" value="&lt;span style=&quot;font-size: 20px;&quot;&gt;&lt;b&gt;Hotels&lt;/b&gt;&lt;/span&gt;" style="rounded=0;whiteSpace=wrap;html=1;" vertex="1" parent="1">
          <mxGeometry x="764.24" y="2427" width="91" height="38" as="geometry" />
        </mxCell>
        <mxCell id="uulidqC-5OU9ns8CFvGA-186" style="edgeStyle=orthogonalEdgeStyle;rounded=0;orthogonalLoop=1;jettySize=auto;html=1;entryX=0.5;entryY=0;entryDx=0;entryDy=0;" edge="1" parent="1" source="uulidqC-5OU9ns8CFvGA-187" target="uulidqC-5OU9ns8CFvGA-185">
          <mxGeometry relative="1" as="geometry" />
        </mxCell>
        <mxCell id="uulidqC-5OU9ns8CFvGA-187" value="&lt;span style=&quot;font-size: 15px;&quot;&gt;address&lt;/span&gt;" style="ellipse;whiteSpace=wrap;html=1;" vertex="1" parent="1">
          <mxGeometry x="627.5" y="2280" width="79" height="40" as="geometry" />
        </mxCell>
        <mxCell id="uulidqC-5OU9ns8CFvGA-188" style="edgeStyle=orthogonalEdgeStyle;rounded=0;orthogonalLoop=1;jettySize=auto;html=1;entryX=0.75;entryY=0;entryDx=0;entryDy=0;" edge="1" parent="1" source="uulidqC-5OU9ns8CFvGA-189" target="uulidqC-5OU9ns8CFvGA-185">
          <mxGeometry relative="1" as="geometry">
            <Array as="points">
              <mxPoint x="832" y="2353" />
              <mxPoint x="833" y="2353" />
            </Array>
          </mxGeometry>
        </mxCell>
        <mxCell id="uulidqC-5OU9ns8CFvGA-189" value="&lt;span style=&quot;font-size: 15px;&quot;&gt;bonfire bit&lt;/span&gt;" style="ellipse;whiteSpace=wrap;html=1;" vertex="1" parent="1">
          <mxGeometry x="869" y="2152" width="99" height="48" as="geometry" />
        </mxCell>
        <mxCell id="uulidqC-5OU9ns8CFvGA-190" value="&lt;span style=&quot;font-size: 15px;&quot;&gt;breakfast&lt;/span&gt;" style="ellipse;whiteSpace=wrap;html=1;" vertex="1" parent="1">
          <mxGeometry x="869" y="2206" width="99" height="48" as="geometry" />
        </mxCell>
        <mxCell id="uulidqC-5OU9ns8CFvGA-191" style="edgeStyle=orthogonalEdgeStyle;rounded=0;orthogonalLoop=1;jettySize=auto;html=1;entryX=0.25;entryY=0;entryDx=0;entryDy=0;" edge="1" parent="1" source="uulidqC-5OU9ns8CFvGA-192" target="uulidqC-5OU9ns8CFvGA-185">
          <mxGeometry relative="1" as="geometry" />
        </mxCell>
        <mxCell id="uulidqC-5OU9ns8CFvGA-192" value="&lt;span style=&quot;font-size: 15px;&quot;&gt;check in date&lt;/span&gt;" style="ellipse;whiteSpace=wrap;html=1;" vertex="1" parent="1">
          <mxGeometry x="624" y="2330" width="86" height="44" as="geometry" />
        </mxCell>
        <mxCell id="uulidqC-5OU9ns8CFvGA-193" style="edgeStyle=orthogonalEdgeStyle;rounded=0;orthogonalLoop=1;jettySize=auto;html=1;entryX=0.126;entryY=0;entryDx=0;entryDy=0;entryPerimeter=0;" edge="1" parent="1" source="uulidqC-5OU9ns8CFvGA-194" target="uulidqC-5OU9ns8CFvGA-185">
          <mxGeometry relative="1" as="geometry">
            <mxPoint x="745.4672616299715" y="2377.5454656427555" as="targetPoint" />
          </mxGeometry>
        </mxCell>
        <mxCell id="uulidqC-5OU9ns8CFvGA-194" value="&lt;span style=&quot;font-size: 15px;&quot;&gt;check out date&lt;/span&gt;" style="ellipse;whiteSpace=wrap;html=1;" vertex="1" parent="1">
          <mxGeometry x="624" y="2383" width="86" height="44" as="geometry" />
        </mxCell>
        <mxCell id="uulidqC-5OU9ns8CFvGA-197" style="edgeStyle=orthogonalEdgeStyle;rounded=0;orthogonalLoop=1;jettySize=auto;html=1;entryX=1;entryY=0;entryDx=0;entryDy=0;" edge="1" parent="1" source="uulidqC-5OU9ns8CFvGA-198" target="uulidqC-5OU9ns8CFvGA-185">
          <mxGeometry relative="1" as="geometry" />
        </mxCell>
        <mxCell id="uulidqC-5OU9ns8CFvGA-198" value="&lt;span style=&quot;font-size: 15px;&quot;&gt;wifi&lt;/span&gt;" style="ellipse;whiteSpace=wrap;html=1;" vertex="1" parent="1">
          <mxGeometry x="900" y="2258" width="86" height="44" as="geometry" />
        </mxCell>
        <mxCell id="uulidqC-5OU9ns8CFvGA-199" style="edgeStyle=orthogonalEdgeStyle;rounded=0;orthogonalLoop=1;jettySize=auto;html=1;entryX=0.881;entryY=0;entryDx=0;entryDy=0;entryPerimeter=0;" edge="1" parent="1" source="uulidqC-5OU9ns8CFvGA-190" target="uulidqC-5OU9ns8CFvGA-185">
          <mxGeometry relative="1" as="geometry" />
        </mxCell>
        <mxCell id="uulidqC-5OU9ns8CFvGA-201" style="edgeStyle=orthogonalEdgeStyle;rounded=0;orthogonalLoop=1;jettySize=auto;html=1;entryX=1;entryY=0.25;entryDx=0;entryDy=0;" edge="1" parent="1" source="uulidqC-5OU9ns8CFvGA-200" target="uulidqC-5OU9ns8CFvGA-185">
          <mxGeometry relative="1" as="geometry">
            <Array as="points">
              <mxPoint x="870" y="2334" />
              <mxPoint x="870" y="2437" />
            </Array>
          </mxGeometry>
        </mxCell>
        <mxCell id="uulidqC-5OU9ns8CFvGA-200" value="&lt;span style=&quot;font-size: 15px;&quot;&gt;housekeeping&lt;/span&gt;" style="ellipse;whiteSpace=wrap;html=1;" vertex="1" parent="1">
          <mxGeometry x="910.5" y="2312" width="118.5" height="44" as="geometry" />
        </mxCell>
        <mxCell id="uulidqC-5OU9ns8CFvGA-203" style="edgeStyle=orthogonalEdgeStyle;rounded=0;orthogonalLoop=1;jettySize=auto;html=1;entryX=1;entryY=0.5;entryDx=0;entryDy=0;" edge="1" parent="1" source="uulidqC-5OU9ns8CFvGA-202" target="uulidqC-5OU9ns8CFvGA-185">
          <mxGeometry relative="1" as="geometry" />
        </mxCell>
        <mxCell id="uulidqC-5OU9ns8CFvGA-202" value="&lt;span style=&quot;font-size: 15px;&quot;&gt;language assisteance&amp;nbsp;&lt;/span&gt;" style="ellipse;whiteSpace=wrap;html=1;" vertex="1" parent="1">
          <mxGeometry x="920.5" y="2374" width="118.5" height="44" as="geometry" />
        </mxCell>
        <mxCell id="uulidqC-5OU9ns8CFvGA-204" value="&lt;span style=&quot;font-size: 15px;&quot;&gt;name&lt;/span&gt;" style="ellipse;whiteSpace=wrap;html=1;" vertex="1" parent="1">
          <mxGeometry x="627.5" y="2228" width="79" height="40" as="geometry" />
        </mxCell>
        <mxCell id="uulidqC-5OU9ns8CFvGA-207" style="edgeStyle=orthogonalEdgeStyle;rounded=0;orthogonalLoop=1;jettySize=auto;html=1;entryX=1;entryY=0.75;entryDx=0;entryDy=0;" edge="1" parent="1" source="uulidqC-5OU9ns8CFvGA-206" target="uulidqC-5OU9ns8CFvGA-185">
          <mxGeometry relative="1" as="geometry">
            <Array as="points">
              <mxPoint x="906" y="2456" />
            </Array>
          </mxGeometry>
        </mxCell>
        <mxCell id="uulidqC-5OU9ns8CFvGA-206" value="&lt;span style=&quot;font-size: 15px;&quot;&gt;pool&lt;/span&gt;" style="ellipse;whiteSpace=wrap;html=1;" vertex="1" parent="1">
          <mxGeometry x="956.75" y="2433" width="61.25" height="32" as="geometry" />
        </mxCell>
        <mxCell id="uulidqC-5OU9ns8CFvGA-209" style="edgeStyle=orthogonalEdgeStyle;rounded=0;orthogonalLoop=1;jettySize=auto;html=1;entryX=0;entryY=0.25;entryDx=0;entryDy=0;" edge="1" parent="1" source="uulidqC-5OU9ns8CFvGA-208" target="uulidqC-5OU9ns8CFvGA-185">
          <mxGeometry relative="1" as="geometry" />
        </mxCell>
        <mxCell id="uulidqC-5OU9ns8CFvGA-208" value="&lt;span style=&quot;font-size: 15px;&quot;&gt;rate per person&lt;/span&gt;" style="ellipse;whiteSpace=wrap;html=1;" vertex="1" parent="1">
          <mxGeometry x="626" y="2436" width="86" height="44" as="geometry" />
        </mxCell>
        <mxCell id="uulidqC-5OU9ns8CFvGA-211" style="edgeStyle=orthogonalEdgeStyle;rounded=0;orthogonalLoop=1;jettySize=auto;html=1;entryX=0;entryY=1;entryDx=0;entryDy=0;" edge="1" parent="1" source="uulidqC-5OU9ns8CFvGA-210" target="uulidqC-5OU9ns8CFvGA-185">
          <mxGeometry relative="1" as="geometry">
            <Array as="points">
              <mxPoint x="764" y="2509" />
            </Array>
          </mxGeometry>
        </mxCell>
        <mxCell id="uulidqC-5OU9ns8CFvGA-210" value="&lt;span style=&quot;font-size: 15px;&quot;&gt;restaurant&lt;/span&gt;" style="ellipse;whiteSpace=wrap;html=1;" vertex="1" parent="1">
          <mxGeometry x="630" y="2493" width="86" height="44" as="geometry" />
        </mxCell>
        <mxCell id="uulidqC-5OU9ns8CFvGA-213" style="edgeStyle=orthogonalEdgeStyle;rounded=0;orthogonalLoop=1;jettySize=auto;html=1;entryX=0.5;entryY=1;entryDx=0;entryDy=0;" edge="1" parent="1" source="uulidqC-5OU9ns8CFvGA-212" target="uulidqC-5OU9ns8CFvGA-185">
          <mxGeometry relative="1" as="geometry">
            <Array as="points">
              <mxPoint x="810" y="2565" />
            </Array>
          </mxGeometry>
        </mxCell>
        <mxCell id="uulidqC-5OU9ns8CFvGA-212" value="&lt;span style=&quot;font-size: 15px;&quot;&gt;rating&lt;/span&gt;" style="ellipse;whiteSpace=wrap;html=1;" vertex="1" parent="1">
          <mxGeometry x="708" y="2547" width="63" height="36" as="geometry" />
        </mxCell>
        <mxCell id="uulidqC-5OU9ns8CFvGA-214" style="edgeStyle=orthogonalEdgeStyle;rounded=0;orthogonalLoop=1;jettySize=auto;html=1;entryX=0.556;entryY=0.036;entryDx=0;entryDy=0;entryPerimeter=0;" edge="1" parent="1" source="uulidqC-5OU9ns8CFvGA-204" target="uulidqC-5OU9ns8CFvGA-185">
          <mxGeometry relative="1" as="geometry" />
        </mxCell>
        <mxCell id="uulidqC-5OU9ns8CFvGA-215" value="&lt;span style=&quot;font-size: 15px;&quot;&gt;city id&lt;/span&gt;" style="ellipse;whiteSpace=wrap;html=1;" vertex="1" parent="1">
          <mxGeometry x="649" y="2168" width="79" height="40" as="geometry" />
        </mxCell>
        <mxCell id="uulidqC-5OU9ns8CFvGA-217" style="edgeStyle=orthogonalEdgeStyle;rounded=0;orthogonalLoop=1;jettySize=auto;html=1;entryX=0.647;entryY=0.049;entryDx=0;entryDy=0;entryPerimeter=0;" edge="1" parent="1" source="uulidqC-5OU9ns8CFvGA-215" target="uulidqC-5OU9ns8CFvGA-185">
          <mxGeometry relative="1" as="geometry">
            <Array as="points">
              <mxPoint x="823" y="2188" />
            </Array>
          </mxGeometry>
        </mxCell>
        <mxCell id="uulidqC-5OU9ns8CFvGA-243" value="&lt;span style=&quot;font-size: 20px;&quot;&gt;&lt;b&gt;Images&lt;/b&gt;&lt;/span&gt;" style="rounded=0;whiteSpace=wrap;html=1;" vertex="1" parent="1">
          <mxGeometry x="1117.74" y="1977" width="91" height="38" as="geometry" />
        </mxCell>
        <mxCell id="uulidqC-5OU9ns8CFvGA-261" value="&lt;span style=&quot;font-size: 15px;&quot;&gt;city id&lt;/span&gt;" style="ellipse;whiteSpace=wrap;html=1;" vertex="1" parent="1">
          <mxGeometry x="1121.24" y="1874" width="79" height="47" as="geometry" />
        </mxCell>
        <mxCell id="uulidqC-5OU9ns8CFvGA-264" value="&lt;span style=&quot;font-size: 15px;&quot;&gt;image path&lt;/span&gt;" style="ellipse;whiteSpace=wrap;html=1;" vertex="1" parent="1">
          <mxGeometry x="1233.24" y="1909" width="102" height="47" as="geometry" />
        </mxCell>
        <mxCell id="uulidqC-5OU9ns8CFvGA-266" style="edgeStyle=orthogonalEdgeStyle;rounded=0;orthogonalLoop=1;jettySize=auto;html=1;entryX=0.473;entryY=-0.011;entryDx=0;entryDy=0;entryPerimeter=0;" edge="1" parent="1" source="uulidqC-5OU9ns8CFvGA-261" target="uulidqC-5OU9ns8CFvGA-243">
          <mxGeometry relative="1" as="geometry" />
        </mxCell>
        <mxCell id="uulidqC-5OU9ns8CFvGA-267" style="edgeStyle=orthogonalEdgeStyle;rounded=0;orthogonalLoop=1;jettySize=auto;html=1;entryX=0.707;entryY=-0.011;entryDx=0;entryDy=0;entryPerimeter=0;" edge="1" parent="1" source="uulidqC-5OU9ns8CFvGA-264" target="uulidqC-5OU9ns8CFvGA-243">
          <mxGeometry relative="1" as="geometry" />
        </mxCell>
        <mxCell id="uulidqC-5OU9ns8CFvGA-277" style="edgeStyle=orthogonalEdgeStyle;rounded=0;orthogonalLoop=1;jettySize=auto;html=1;entryX=0;entryY=0.5;entryDx=0;entryDy=0;" edge="1" parent="1" source="uulidqC-5OU9ns8CFvGA-269" target="uulidqC-5OU9ns8CFvGA-276">
          <mxGeometry relative="1" as="geometry">
            <Array as="points">
              <mxPoint x="90" y="1717" />
            </Array>
          </mxGeometry>
        </mxCell>
        <mxCell id="uulidqC-5OU9ns8CFvGA-269" value="&lt;b&gt;Availability&lt;/b&gt;" style="rhombus;whiteSpace=wrap;html=1;" vertex="1" parent="1">
          <mxGeometry x="30" y="1618" width="120" height="69" as="geometry" />
        </mxCell>
        <mxCell id="uulidqC-5OU9ns8CFvGA-271" style="edgeStyle=orthogonalEdgeStyle;rounded=0;orthogonalLoop=1;jettySize=auto;html=1;entryX=0.559;entryY=0.035;entryDx=0;entryDy=0;entryPerimeter=0;" edge="1" parent="1" source="uulidqC-5OU9ns8CFvGA-148" target="uulidqC-5OU9ns8CFvGA-133">
          <mxGeometry relative="1" as="geometry">
            <Array as="points">
              <mxPoint x="226" y="2003" />
            </Array>
          </mxGeometry>
        </mxCell>
        <mxCell id="uulidqC-5OU9ns8CFvGA-273" style="edgeStyle=orthogonalEdgeStyle;rounded=0;orthogonalLoop=1;jettySize=auto;html=1;entryX=0.683;entryY=0.064;entryDx=0;entryDy=0;entryPerimeter=0;" edge="1" parent="1" source="uulidqC-5OU9ns8CFvGA-137" target="uulidqC-5OU9ns8CFvGA-133">
          <mxGeometry relative="1" as="geometry">
            <Array as="points">
              <mxPoint x="239" y="2060" />
              <mxPoint x="239" y="2139" />
              <mxPoint x="240" y="2139" />
            </Array>
          </mxGeometry>
        </mxCell>
        <mxCell id="uulidqC-5OU9ns8CFvGA-274" style="edgeStyle=orthogonalEdgeStyle;rounded=0;orthogonalLoop=1;jettySize=auto;html=1;entryX=0.613;entryY=-0.026;entryDx=0;entryDy=0;entryPerimeter=0;" edge="1" parent="1" source="uulidqC-5OU9ns8CFvGA-269" target="uulidqC-5OU9ns8CFvGA-91">
          <mxGeometry relative="1" as="geometry" />
        </mxCell>
        <mxCell id="uulidqC-5OU9ns8CFvGA-281" style="edgeStyle=orthogonalEdgeStyle;rounded=0;orthogonalLoop=1;jettySize=auto;html=1;entryX=0.5;entryY=0;entryDx=0;entryDy=0;" edge="1" parent="1" source="uulidqC-5OU9ns8CFvGA-276" target="uulidqC-5OU9ns8CFvGA-108">
          <mxGeometry relative="1" as="geometry" />
        </mxCell>
        <mxCell id="uulidqC-5OU9ns8CFvGA-300" style="edgeStyle=orthogonalEdgeStyle;rounded=0;orthogonalLoop=1;jettySize=auto;html=1;entryX=0.5;entryY=0;entryDx=0;entryDy=0;" edge="1" parent="1" source="uulidqC-5OU9ns8CFvGA-276" target="uulidqC-5OU9ns8CFvGA-148">
          <mxGeometry relative="1" as="geometry">
            <Array as="points">
              <mxPoint x="338" y="1764" />
              <mxPoint x="152" y="1764" />
            </Array>
          </mxGeometry>
        </mxCell>
        <mxCell id="uulidqC-5OU9ns8CFvGA-276" value="&lt;b&gt;Login&lt;/b&gt;" style="rhombus;whiteSpace=wrap;html=1;" vertex="1" parent="1">
          <mxGeometry x="278" y="1682" width="120" height="69" as="geometry" />
        </mxCell>
        <mxCell id="uulidqC-5OU9ns8CFvGA-284" value="&lt;b&gt;search for&amp;nbsp;&lt;/b&gt;" style="rhombus;whiteSpace=wrap;html=1;" vertex="1" parent="1">
          <mxGeometry x="691.61" y="2055" width="106.26" height="53" as="geometry" />
        </mxCell>
        <mxCell id="uulidqC-5OU9ns8CFvGA-286" style="edgeStyle=orthogonalEdgeStyle;rounded=0;orthogonalLoop=1;jettySize=auto;html=1;entryX=0.605;entryY=0.027;entryDx=0;entryDy=0;entryPerimeter=0;" edge="1" parent="1" source="uulidqC-5OU9ns8CFvGA-284" target="uulidqC-5OU9ns8CFvGA-215">
          <mxGeometry relative="1" as="geometry" />
        </mxCell>
        <mxCell id="uulidqC-5OU9ns8CFvGA-287" value="&lt;span style=&quot;font-size: 15px;&quot;&gt;duration&lt;/span&gt;" style="ellipse;whiteSpace=wrap;html=1;" vertex="1" parent="1">
          <mxGeometry x="637.25" y="1740" width="93.5" height="44" as="geometry" />
        </mxCell>
        <mxCell id="uulidqC-5OU9ns8CFvGA-289" style="edgeStyle=orthogonalEdgeStyle;rounded=0;orthogonalLoop=1;jettySize=auto;html=1;entryX=0.382;entryY=0.034;entryDx=0;entryDy=0;entryPerimeter=0;" edge="1" parent="1" source="uulidqC-5OU9ns8CFvGA-287" target="uulidqC-5OU9ns8CFvGA-108">
          <mxGeometry relative="1" as="geometry" />
        </mxCell>
      </root>
    </mxGraphModel>
  </diagram>
</mxfile>
